<svg xmlns="http://www.w3.org/2000/svg" viewBox="0 0 1100 500" font-family="'Segoe UI', system-ui, -apple-system, sans-serif">
  <defs>
    <marker id="arrow" viewBox="0 0 10 7" refX="10" refY="3.5" markerWidth="10" markerHeight="7" orient="auto-start-reverse">
      <path d="M 0 0 L 10 3.5 L 0 7 z" fill="#444"/>
    </marker>
    <marker id="arrow-gray" viewBox="0 0 10 7" refX="10" refY="3.5" markerWidth="10" markerHeight="7" orient="auto-start-reverse">
      <path d="M 0 0 L 10 3.5 L 0 7 z" fill="#999"/>
    </marker>
    <filter id="shadow" x="-4%" y="-4%" width="108%" height="116%">
      <feDropShadow dx="1" dy="2" stdDeviation="2" flood-opacity="0.08"/>
    </filter>
  </defs>

  <!-- Title -->
  <text x="550" y="32" text-anchor="middle" font-size="22" font-weight="700" fill="#1e1e1e">frndOS Workflow State Machine</text>
  <text x="550" y="54" text-anchor="middle" font-size="13" fill="#757575">10-Phase Feature Development Lifecycle</text>

  <!-- Row 1: Idle → PRD Creation → Wireframe → Wireframe PR → Wireframe Review -->
  <rect x="10" y="80" width="120" height="48" rx="10" fill="#e9ecef" stroke="#868e96" stroke-width="2" filter="url(#shadow)"/>
  <text x="70" y="109" text-anchor="middle" font-size="15" font-weight="600" fill="#1e1e1e">Idle</text>

  <line x1="130" y1="104" x2="155" y2="104" stroke="#444" stroke-width="2" marker-end="url(#arrow)"/>

  <rect x="160" y="80" width="170" height="48" rx="10" fill="#a5d8ff" stroke="#1971c2" stroke-width="2" filter="url(#shadow)"/>
  <text x="245" y="109" text-anchor="middle" font-size="14" font-weight="600" fill="#1e1e1e">1. PRD Creation</text>
  <text x="245" y="143" text-anchor="middle" font-size="11" fill="#757575">frndos-prd</text>

  <line x1="330" y1="104" x2="355" y2="104" stroke="#444" stroke-width="2" marker-end="url(#arrow)"/>

  <rect x="360" y="80" width="155" height="48" rx="10" fill="#d0bfff" stroke="#9c36b5" stroke-width="2" filter="url(#shadow)"/>
  <text x="437" y="109" text-anchor="middle" font-size="14" font-weight="600" fill="#1e1e1e">2. Wireframe</text>
  <text x="437" y="143" text-anchor="middle" font-size="11" fill="#757575">frndos-wireframe</text>

  <line x1="515" y1="104" x2="540" y2="104" stroke="#444" stroke-width="2" marker-end="url(#arrow)"/>

  <rect x="545" y="80" width="175" height="48" rx="10" fill="#d0bfff" stroke="#9c36b5" stroke-width="2" filter="url(#shadow)"/>
  <text x="632" y="109" text-anchor="middle" font-size="14" font-weight="600" fill="#1e1e1e">3. Wireframe PR</text>
  <text x="632" y="143" text-anchor="middle" font-size="11" fill="#757575">frndos-pr</text>

  <line x1="720" y1="104" x2="745" y2="104" stroke="#444" stroke-width="2" marker-end="url(#arrow)"/>

  <rect x="750" y="80" width="210" height="48" rx="10" fill="#d0bfff" stroke="#9c36b5" stroke-width="2" filter="url(#shadow)"/>
  <text x="855" y="109" text-anchor="middle" font-size="14" font-weight="600" fill="#1e1e1e">4. Wireframe Review</text>
  <text x="855" y="143" text-anchor="middle" font-size="11" fill="#757575">frndos-pr</text>

  <!-- Turn down -->
  <line x1="855" y1="128" x2="855" y2="175" stroke="#444" stroke-width="2" marker-end="url(#arrow)"/>

  <!-- Row 2 (right to left): Branch Creation → PRD Splitting → Implementation → PR Submission -->
  <rect x="750" y="180" width="210" height="48" rx="10" fill="#b2f2bb" stroke="#2f9e44" stroke-width="2" filter="url(#shadow)"/>
  <text x="855" y="209" text-anchor="middle" font-size="14" font-weight="600" fill="#1e1e1e">5. Branch Creation</text>
  <text x="855" y="243" text-anchor="middle" font-size="11" fill="#757575">frndos-orchestra</text>

  <line x1="750" y1="204" x2="725" y2="204" stroke="#444" stroke-width="2" marker-end="url(#arrow)"/>

  <rect x="545" y="180" width="175" height="48" rx="10" fill="#b2f2bb" stroke="#2f9e44" stroke-width="2" filter="url(#shadow)"/>
  <text x="632" y="209" text-anchor="middle" font-size="14" font-weight="600" fill="#1e1e1e">6. PRD Splitting</text>
  <text x="632" y="243" text-anchor="middle" font-size="11" fill="#757575">frndos-splitter</text>

  <line x1="545" y1="204" x2="520" y2="204" stroke="#444" stroke-width="2" marker-end="url(#arrow)"/>

  <rect x="330" y="180" width="185" height="48" rx="10" fill="#b2f2bb" stroke="#2f9e44" stroke-width="2" filter="url(#shadow)"/>
  <text x="422" y="209" text-anchor="middle" font-size="14" font-weight="600" fill="#1e1e1e">7. Implementation</text>
  <text x="422" y="243" text-anchor="middle" font-size="11" fill="#757575">frndos-implement</text>

  <line x1="330" y1="204" x2="305" y2="204" stroke="#444" stroke-width="2" marker-end="url(#arrow)"/>

  <rect x="120" y="180" width="180" height="48" rx="10" fill="#ffd8a8" stroke="#f08c00" stroke-width="2" filter="url(#shadow)"/>
  <text x="210" y="209" text-anchor="middle" font-size="14" font-weight="600" fill="#1e1e1e">8. PR Submission</text>
  <text x="210" y="243" text-anchor="middle" font-size="11" fill="#757575">frndos-pr</text>

  <!-- Turn down -->
  <line x1="210" y1="228" x2="210" y2="275" stroke="#444" stroke-width="2" marker-end="url(#arrow)"/>

  <!-- Row 3: PR Review → Completion -->
  <rect x="120" y="280" width="180" height="48" rx="10" fill="#ffd8a8" stroke="#f08c00" stroke-width="2" filter="url(#shadow)"/>
  <text x="210" y="309" text-anchor="middle" font-size="14" font-weight="600" fill="#1e1e1e">9. PR Review</text>
  <text x="210" y="343" text-anchor="middle" font-size="11" fill="#757575">frndos-pr</text>

  <line x1="300" y1="304" x2="325" y2="304" stroke="#444" stroke-width="2" marker-end="url(#arrow)"/>

  <rect x="330" y="280" width="185" height="48" rx="10" fill="#ffc9c9" stroke="#e03131" stroke-width="2" filter="url(#shadow)"/>
  <text x="422" y="309" text-anchor="middle" font-size="14" font-weight="600" fill="#1e1e1e">10. Completion</text>
  <text x="422" y="343" text-anchor="middle" font-size="11" fill="#757575">frndos-track</text>

  <!-- Dashed loop back to Idle -->
  <path d="M 422 328 Q 422 390 70 390 Q 10 390 10 340 L 10 128" fill="none" stroke="#999" stroke-width="1.5" stroke-dasharray="6 3" marker-end="url(#arrow-gray)"/>
  <text x="250" y="405" text-anchor="middle" font-size="11" fill="#999" font-style="italic">back to Idle</text>

  <!-- Legend -->
  <text x="30" y="445" font-size="13" font-weight="600" fill="#1e1e1e">Legend</text>
  <rect x="30" y="458" width="14" height="14" rx="3" fill="#a5d8ff" stroke="#1971c2" stroke-width="1"/>
  <text x="50" y="470" font-size="12" fill="#757575">Planning</text>
  <rect x="120" y="458" width="14" height="14" rx="3" fill="#d0bfff" stroke="#9c36b5" stroke-width="1"/>
  <text x="140" y="470" font-size="12" fill="#757575">Design &amp; Review</text>
  <rect x="260" y="458" width="14" height="14" rx="3" fill="#b2f2bb" stroke="#2f9e44" stroke-width="1"/>
  <text x="280" y="470" font-size="12" fill="#757575">Build</text>
  <rect x="330" y="458" width="14" height="14" rx="3" fill="#ffd8a8" stroke="#f08c00" stroke-width="1"/>
  <text x="350" y="470" font-size="12" fill="#757575">Ship</text>
  <rect x="400" y="458" width="14" height="14" rx="3" fill="#ffc9c9" stroke="#e03131" stroke-width="1"/>
  <text x="420" y="470" font-size="12" fill="#757575">Complete</text>
</svg>
